<svg width="159" height="26" viewBox="0 0 159 26" fill="none" xmlns="http://www.w3.org/2000/svg">
<path d="M151.374 25.4406C148.39 25.4406 146.071 24.6248 144.416 22.9931C142.761 21.3381 141.934 19.0654 141.934 16.1749C141.934 14.2868 142.295 12.6434 143.018 11.2448C143.74 9.84624 144.742 8.77398 146.025 8.02806C147.33 7.28214 148.822 6.90918 150.5 6.90918C152.178 6.90918 153.647 7.22387 154.906 7.85324C156.188 8.48261 157.167 9.33342 157.843 10.4057C158.542 11.4546 158.892 12.6201 158.892 13.9022C158.892 14.4849 158.833 14.9861 158.717 15.4057L158.542 16.0001C157.54 16.2099 156.456 16.3847 155.29 16.5246C152.843 16.8742 150.372 17.049 147.878 17.049C147.878 19.753 148.251 21.6877 148.997 22.8532C149.742 23.9954 150.768 24.5665 152.073 24.5665C152.983 24.5665 153.822 24.3567 154.591 23.9372C155.383 23.4943 156.001 22.9232 156.444 22.2239C156.91 21.5013 157.143 20.767 157.143 20.0211H158.018C158.018 20.9535 157.738 21.8393 157.178 22.6784C156.619 23.5176 155.838 24.1936 154.836 24.7064C153.833 25.1959 152.68 25.4406 151.374 25.4406ZM147.878 16.1749C149.369 16.1749 150.582 16.1166 151.514 16.0001C151.91 15.9768 152.33 15.9185 152.773 15.8253C152.796 15.7087 152.854 15.4523 152.948 15.056C153.064 14.4733 153.122 13.8556 153.122 13.2029C153.122 11.2682 152.866 9.8579 152.353 8.97212C151.84 8.06303 151.223 7.60848 150.5 7.60848C148.752 7.60848 147.878 10.464 147.878 16.1749Z" fill="#FC9254"/>
<path d="M131.271 25.4406C129.826 25.4406 128.533 25.126 127.39 24.4966C126.831 24.1936 126.376 23.8672 126.027 23.5176C125.654 24.0304 125.246 24.4267 124.803 24.7064C124.593 24.8462 124.36 24.9744 124.104 25.091H123.229V19.1469H124.628C124.931 20.126 125.374 21.0351 125.957 21.8742C127.192 23.6691 128.731 24.5665 130.572 24.5665C131.551 24.5665 132.285 24.3334 132.775 23.8672C133.288 23.3777 133.544 22.6784 133.544 21.7693C133.544 21.0001 133.195 20.3591 132.495 19.8462C131.819 19.3101 130.747 18.6574 129.278 17.8882C128.02 17.2588 126.994 16.6994 126.202 16.2099C125.432 15.6971 124.768 15.0677 124.209 14.3218C123.672 13.5525 123.404 12.6551 123.404 11.6295C123.404 10.2309 123.999 9.10032 125.188 8.23785C126.4 7.35207 128.253 6.90918 130.747 6.90918C131.982 6.90918 133.125 7.23552 134.174 7.8882C134.686 8.19123 135.129 8.50592 135.502 8.83226C135.805 8.41268 136.213 8.01641 136.726 7.64345C137.122 7.41035 137.355 7.28214 137.425 7.25883H138.299V13.2029H136.901C136.551 12.2006 136.12 11.3031 135.607 10.5106C134.442 8.6924 133.055 7.78331 131.446 7.78331C130.817 7.78331 130.281 8.01641 129.838 8.48261C129.395 8.94881 129.174 9.53156 129.174 10.2309C129.174 11.1166 129.547 11.8626 130.292 12.4686C131.038 13.0514 132.169 13.7274 133.684 14.4966C134.919 15.126 135.898 15.6854 136.621 16.1749C137.367 16.6411 137.996 17.2239 138.509 17.9232C139.045 18.6225 139.313 19.4383 139.313 20.3707C139.313 23.7507 136.633 25.4406 131.271 25.4406Z" fill="#FC9254"/>
<path d="M108.703 25.4406C106.628 25.4406 105.032 24.9978 103.913 24.112C102.794 23.2262 102.234 22.0957 102.234 20.7204C102.234 19.8113 102.433 18.9138 102.829 18.0281C102.992 17.6085 103.202 17.2239 103.458 16.8742C104.414 16.6411 105.451 16.4313 106.57 16.2448C109.088 15.8253 111.314 15.5689 113.248 15.4756V14.4267C113.248 11.8393 112.934 10.056 112.304 9.07701C111.675 8.09799 110.708 7.60848 109.402 7.60848C108.913 7.60848 108.493 7.66676 108.143 7.78331L107.654 7.95813V13.2029L107.199 13.3078C106.826 13.3544 106.512 13.3777 106.255 13.3777C105.463 13.3777 104.822 13.1446 104.332 12.6784C103.866 12.1889 103.633 11.5479 103.633 10.7553C103.633 9.68307 104.169 8.77398 105.241 8.02806C106.337 7.28214 107.957 6.90918 110.102 6.90918C111.92 6.90918 113.481 7.23552 114.787 7.8882C116.115 8.51757 117.118 9.40335 117.794 10.5455C118.493 11.6644 118.843 12.9581 118.843 14.4267V23.8672L120.941 24.3917V24.9162H117.794C116.395 24.9162 115.311 24.4849 114.542 23.6225C114.216 23.2728 113.959 22.8299 113.773 22.2938C113.446 22.8765 113.062 23.401 112.619 23.8672C111.57 24.9162 110.265 25.4406 108.703 25.4406ZM110.102 24.2169C110.964 24.2169 111.745 23.7507 112.444 22.8183C112.701 22.4686 112.969 22.0024 113.248 21.4197V16.3497C112.176 16.3497 111.15 16.408 110.171 16.5246C109.449 16.6178 108.959 16.6761 108.703 16.6994C108.586 16.9558 108.47 17.3055 108.353 17.7483C108.12 18.6341 108.004 19.5082 108.004 20.3707C108.004 21.6761 108.202 22.6434 108.598 23.2728C108.994 23.9022 109.495 24.2169 110.102 24.2169Z" fill="#FC9254"/>
<path d="M79.6982 24.3926L81.7961 23.8681V1.49048L79.6982 0.966003V0.441528H98.4045V6.73523H97.3556C96.9127 6.38558 96.5281 5.94269 96.2017 5.40656C95.4558 4.14782 95.0829 2.78419 95.0829 1.31565H87.5654V12.3296H91.5864C91.7495 11.4439 92.0526 10.6164 92.4954 9.84712C92.6819 9.49747 92.9034 9.15948 93.1598 8.83314H94.2087V16.7003H93.1598C92.9034 16.3739 92.6819 16.0359 92.4954 15.6863C92.0526 14.9171 91.7495 14.0895 91.5864 13.2038H87.5654V24.0429H95.7822C95.7822 22.5744 96.1551 21.2108 96.901 19.952C97.2274 19.4159 97.612 18.973 98.0549 18.6233H99.1038V24.9171H79.6982V24.3926Z" fill="#FC9254"/>
<path d="M69.2211 25.4406C66.2374 25.4406 63.918 24.6248 62.263 22.9931C60.608 21.3381 59.7805 19.0654 59.7805 16.1749C59.7805 14.2868 60.1418 12.6434 60.8644 11.2448C61.587 9.84624 62.5894 8.77398 63.8714 8.02806C65.1768 7.28214 66.6686 6.90918 68.347 6.90918C70.0253 6.90918 71.4938 7.22387 72.7525 7.85324C74.0346 8.48261 75.0136 9.33342 75.6896 10.4057C76.3889 11.4546 76.7386 12.6201 76.7386 13.9022C76.7386 14.4849 76.6803 14.9861 76.5637 15.4057L76.3889 16.0001C75.3866 16.2099 74.3027 16.3847 73.1372 16.5246C70.6896 16.8742 68.2187 17.049 65.7246 17.049C65.7246 19.753 66.0975 21.6877 66.8435 22.8532C67.5894 23.9954 68.615 24.5665 69.9204 24.5665C70.8295 24.5665 71.6686 24.3567 72.4379 23.9372C73.2304 23.4943 73.8481 22.9232 74.291 22.2239C74.7572 21.5013 74.9903 20.767 74.9903 20.0211H75.8644C75.8644 20.9535 75.5847 21.8393 75.0253 22.6784C74.4658 23.5176 73.6849 24.1936 72.6826 24.7064C71.6803 25.1959 70.5264 25.4406 69.2211 25.4406ZM65.7246 16.1749C67.2164 16.1749 68.4285 16.1166 69.3609 16.0001C69.7572 15.9768 70.1768 15.9185 70.6197 15.8253C70.643 15.7087 70.7013 15.4523 70.7945 15.056C70.9111 14.4733 70.9693 13.8556 70.9693 13.2029C70.9693 11.2682 70.7129 9.8579 70.2001 8.97212C69.6873 8.06303 69.0696 7.60848 68.347 7.60848C66.5987 7.60848 65.7246 10.464 65.7246 16.1749Z" fill="#FC9254"/>
<path d="M36.5283 24.3917L38.6262 23.8672V8.48261L36.5283 7.95813V7.43366H39.6752C41.0505 7.43366 42.1344 7.87655 42.9269 8.76233C43.23 9.11198 43.4864 9.54321 43.6962 10.056C44.0225 9.44997 44.4071 8.9255 44.85 8.48261C45.8989 7.43365 47.2043 6.90918 48.7661 6.90918C50.0714 6.90918 51.2369 7.1889 52.2626 7.74834C53.3115 8.28447 54.1274 8.99543 54.7101 9.88121C55.2929 10.767 55.5843 11.6994 55.5843 12.6784V23.8672L57.6822 24.3917V24.9162H53.1367C51.0388 24.9162 49.9899 23.8672 49.9899 21.7693V12.6784C49.9899 11.2099 49.7218 10.091 49.1857 9.32177C48.6728 8.52923 48.0668 8.13296 47.3675 8.13296C46.4817 8.13296 45.6892 8.59916 44.9899 9.53156C44.6868 9.92783 44.4304 10.394 44.2206 10.9302V23.8672L46.3185 24.3917V24.9162H36.5283V24.3917Z" fill="#FC9254"/>
<path d="M24.6431 24.3926L26.741 23.8681V8.48349L24.6431 7.95901V7.43454H29.1885C31.2864 7.43454 32.3354 8.48349 32.3354 10.5814V23.8681L34.4333 24.3926V24.9171H24.6431V24.3926ZM29.1885 5.33663C28.4892 5.33663 27.9065 5.10353 27.4403 4.63733C26.9741 4.17113 26.741 3.58838 26.741 2.88908C26.741 2.18978 26.9741 1.60703 27.4403 1.14083C27.9065 0.674629 28.4892 0.441528 29.1885 0.441528C29.8878 0.441528 30.4706 0.674629 30.9368 1.14083C31.403 1.60703 31.6361 2.18978 31.6361 2.88908C31.6361 3.58838 31.403 4.17113 30.9368 4.63733C30.4706 5.10353 29.8878 5.33663 29.1885 5.33663Z" fill="#FC9254"/>
<path d="M0 24.3926L2.0979 23.8681V1.49048L0 0.966003V0.441528H8.91608C13.0886 0.441528 16.282 1.51379 18.4965 3.65831C20.7343 5.80283 21.8531 8.80983 21.8531 12.6793C21.8531 16.5488 20.7343 19.5557 18.4965 21.7003C16.282 23.8448 13.0886 24.9171 8.91608 24.9171H0V24.3926ZM8.91608 24.0429C11.0839 24.0429 12.7622 23.1688 13.951 21.4205C15.1399 19.649 15.7343 16.7352 15.7343 12.6793C15.7343 8.62335 15.1399 5.72125 13.951 3.973C12.7622 2.20143 11.0839 1.31565 8.91608 1.31565H7.86713V24.0429H8.91608Z" fill="#FC9254"/>
</svg>
