<svg width="61" height="62" viewBox="0 0 61 62" fill="none" xmlns="http://www.w3.org/2000/svg">
<path d="M0 30.0942C0 13.7175 13.6553 0.441528 30.5 0.441528C47.3447 0.441528 61 13.7175 61 30.0942V31.9058C61 48.2825 47.3447 61.5584 30.5 61.5584C13.6553 61.5584 0 48.2825 0 31.9058V30.0942Z" fill="#F29057"/>
<path fill-rule="evenodd" clip-rule="evenodd" d="M4.75445 31.5461C4.75445 45.8136 16.4491 57.4284 30.8689 57.4284C45.2887 57.4284 56.9833 45.8136 56.9833 31.5461C56.9833 17.2786 45.2887 5.66384 30.8689 5.66384C16.4491 5.66384 4.75445 17.2786 4.75445 31.5461ZM30.8689 4.58878C15.846 4.58878 3.66748 16.6877 3.66748 31.5461C3.66748 46.4045 15.846 58.5034 30.8689 58.5034C45.8918 58.5034 58.0703 46.4045 58.0703 31.5461C58.0703 16.6877 45.8918 4.58878 30.8689 4.58878Z" fill="#FFEB6A"/>
<path d="M25.5951 40.4415C25.5951 42.8215 25.6379 44.3277 26.1712 45.7107C26.8926 47.5761 28.4609 48.7661 30.9075 48.7661C34.2009 48.7661 36.6162 47.0937 38.404 43.3629L39 43.6523C37.3062 47.4475 34.4832 49.4415 30.8134 49.4415C28.0218 49.4415 25.7007 48.3158 24.1637 46.6112C22.5327 44.778 22 43.4648 22 40.4415H25.5951Z" fill="#FFEB6A"/>
<path fill-rule="evenodd" clip-rule="evenodd" d="M39 39.4415H25.6079H22V37.2488C22 31.9363 25.4856 28.4415 30.5306 28.4415C32.4874 28.4415 34.6888 29.2228 36.1565 30.5978C38.0216 32.3478 39 34.254 39 38.004V39.4415ZM35.3921 36.8478V38.754H25.6079V37.0353C25.6079 34.4103 25.8219 32.0665 27.0755 30.6915C27.9622 29.7228 28.9406 29.129 30.4388 29.129C32.9766 29.129 33.9856 30.4728 34.7806 32.0665C35.3615 33.2228 35.3921 35.879 35.3921 36.8478Z" fill="white"/>
<path fill-rule="evenodd" clip-rule="evenodd" d="M31 28.4185C31.5356 28.4185 31.9744 27.9836 31.9744 27.4415C31.9744 26.8995 31.5356 26.4645 31 26.4645C30.4644 26.4645 30.0256 26.8995 30.0256 27.4415C30.0256 27.9836 30.4644 28.4185 31 28.4185ZM31 29.4415C32.1046 29.4415 33 28.5461 33 27.4415C33 26.337 32.1046 25.4415 31 25.4415C29.8954 25.4415 29 26.337 29 27.4415C29 28.5461 29.8954 29.4415 31 29.4415Z" fill="white"/>
<path d="M28.1825 17.412L27.9834 16.4415L27.2715 17.2861L27 17.9838V18.5661L27.175 19.5366L27.7662 20.4546L28.5928 21.6192L29.1538 22.2435L29.5581 22.7943L29.8778 23.7596V24.4415L30.9155 23.4343L31 23.1091V22.7943L30.9517 22.3379L30.813 21.7923L30.3303 20.9005L29.2262 19.5366L28.5928 18.435L28.1825 17.412Z" fill="#FFEB6A"/>
<path d="M31.3284 14.4245V13.4415L30.9245 13.7772L30.3507 14.5588L30 15.3548V16.8892L30.3507 18.0688L31.3284 19.5169L32.5292 20.9123L33.3209 22.1495L33.4697 23.2619L33.3209 24.4415L33.7088 24.2737L34.5537 23.3914L35 22.4276V21.0993L34.5537 20.1978L33.8363 19.1813L33.0446 18.0688L32.2529 16.755L31.695 15.5226L31.3284 14.4245Z" fill="#FFEB6A"/>
</svg>
